<svg xmlns="http://www.w3.org/2000/svg" width="32" height="32" viewBox="0 0 32 32"><g fill="#40806E"><path d="M10.55 4.595c.104-.176.14-.176.28-.176h3.931c.211 0 .352.21.282.386l-5.09 11.826v10.636c0 .175-.14.314-.315.314H5.496c-.105 0-.246-.14-.246-.314V16.631L.021 4.875c-.07-.246.036-.456.282-.456h3.93c.14 0 .174 0 .28.176l3.053 5.895 2.984-5.895zM16.732 8.49V4.735c0-.176.143-.316.317-.316h14.635c.176 0 .316.14.316.316V8.49c0 .176-.14.315-.316.315H26.7v18.461c0 .175-.14.314-.314.314h-4.038a.313.313 0 01-.314-.314V8.805h-4.983a.316.316 0 01-.319-.315z"/></g></svg>