<?xml version="1.0" encoding="utf-8"?>
<!-- Generator: Adobe Illustrator 16.0.3, SVG Export Plug-In . SVG Version: 6.00 Build 0)  -->
<!DOCTYPE svg PUBLIC "-//W3C//DTD SVG 1.1//EN" "http://www.w3.org/Graphics/SVG/1.1/DTD/svg11.dtd">
<svg version="1.1" xmlns="http://www.w3.org/2000/svg" xmlns:xlink="http://www.w3.org/1999/xlink" x="0px" y="0px" width="40px"
	 height="40px" viewBox="119.5 0.5 40 40" enable-background="new 119.5 0.5 40 40" xml:space="preserve">
<g id="レイヤー_1">
	<path fill="#FFFFFF" d="M152.251,18.5H151.5v-1c0-2-1-3-3-3h-10l-3-4h-8c-2,0-3,1-3,3v16c0,1.047,0.281,1.813,0.829,2.312l0,0
		c0.375,0.454,1.091,0.688,2.171,0.688h21c2,0,3.208-0.777,3.625-2.334l2.501-9.333C155.042,19.277,154.251,18.5,152.251,18.5z
		 M125.035,31.047c0.002,0.022-0.001,0.049,0.002,0.07C125.034,31.096,125.037,31.069,125.035,31.047z M125.125,30.166
		c-0.049,0.183-0.078,0.353-0.094,0.514C125.046,30.52,125.076,30.349,125.125,30.166L126,26.9V13.5c0-1.178,0.322-1.5,1.5-1.5h7.25
		l2.55,3.4l0.45,0.6h0.75h10c1.178,0,1.5,0.322,1.5,1.5v1h-18.749c-2,0-3.209,0.777-3.625,2.333L125.125,30.166z M153.177,20.445
		l-2.501,9.333C150.562,30.205,150.349,31,148.5,31h-21c-0.579,0-0.863-0.08-0.982-0.128c0.003-0.063,0.016-0.166,0.057-0.317
		l2.501-9.334c0.114-0.427,0.326-1.221,2.176-1.221h21c0.578,0,0.863,0.08,0.981,0.127C153.23,20.19,153.218,20.293,153.177,20.445z
		"/>
</g>
<g id="レイヤー_2">
</g>
</svg>
